<?xml version="1.0" encoding="UTF-8" ?>
<svg version="1.1" width="64" height="64" xmlns="http://www.w3.org/2000/svg" shape-rendering="crispEdges">
<rect x="34" y="10" width="4" height="46" fill="#000000" />
<rect x="38" y="10" width="2" height="2" fill="#495D63" />
<rect x="32" y="12" width="2" height="2" fill="#495D63" />
<rect x="38" y="12" width="2" height="42" fill="#000000" />
<rect x="40" y="12" width="2" height="2" fill="#495D63" />
<rect x="30" y="14" width="2" height="2" fill="#495D63" />
<rect x="32" y="14" width="2" height="38" fill="#000000" />
<rect x="40" y="14" width="2" height="38" fill="#000000" />
<rect x="28" y="16" width="4" height="34" fill="#000000" />
<rect x="26" y="18" width="2" height="30" fill="#000000" />
<rect x="24" y="20" width="2" height="26" fill="#000000" />
<rect x="22" y="22" width="2" height="22" fill="#000000" />
<rect x="8" y="24" width="2" height="4" fill="#000000" />
<rect x="10" y="24" width="2" height="2" fill="#495D63" />
<rect x="20" y="24" width="2" height="2" fill="#495D63" />
<rect x="10" y="26" width="2" height="14" fill="#000000" />
<rect x="12" y="26" width="2" height="2" fill="#495D63" />
<rect x="18" y="26" width="2" height="2" fill="#495D63" />
<rect x="20" y="26" width="2" height="14" fill="#000000" />
<rect x="8" y="28" width="2" height="10" fill="#495D63" />
<rect x="12" y="28" width="2" height="10" fill="#000000" />
<rect x="16" y="28" width="4" height="10" fill="#000000" />
<rect x="8" y="38" width="2" height="4" fill="#000000" />
<rect x="12" y="38" width="2" height="2" fill="#495D63" />
<rect x="18" y="38" width="2" height="2" fill="#495D63" />
<rect x="10" y="40" width="2" height="2" fill="#495D63" />
<rect x="20" y="40" width="2" height="2" fill="#495D63" />
<rect x="30" y="50" width="2" height="2" fill="#495D63" />
<rect x="32" y="52" width="2" height="2" fill="#495D63" />
<rect x="40" y="52" width="2" height="2" fill="#495D63" />
<rect x="38" y="54" width="2" height="2" fill="#495D63" />
</svg>