<?xml version="1.0" encoding="UTF-8" ?>
<svg version="1.1" width="64" height="64" xmlns="http://www.w3.org/2000/svg" shape-rendering="crispEdges">
<rect x="14" y="12" width="2" height="2" fill="#495D63" />
<rect x="16" y="12" width="34" height="10" fill="#000000" />
<rect x="50" y="12" width="2" height="2" fill="#495D63" />
<rect x="12" y="14" width="4" height="6" fill="#000000" />
<rect x="50" y="14" width="4" height="6" fill="#000000" />
<rect x="14" y="20" width="2" height="2" fill="#495D63" />
<rect x="50" y="20" width="2" height="2" fill="#495D63" />
<rect x="14" y="28" width="2" height="2" fill="#495D63" />
<rect x="16" y="28" width="34" height="10" fill="#000000" />
<rect x="50" y="28" width="2" height="2" fill="#495D63" />
<rect x="12" y="30" width="4" height="6" fill="#000000" />
<rect x="50" y="30" width="4" height="6" fill="#000000" />
<rect x="14" y="36" width="2" height="2" fill="#495D63" />
<rect x="50" y="36" width="2" height="2" fill="#495D63" />
<rect x="14" y="44" width="2" height="2" fill="#495D63" />
<rect x="16" y="44" width="34" height="10" fill="#000000" />
<rect x="50" y="44" width="2" height="2" fill="#495D63" />
<rect x="12" y="46" width="4" height="6" fill="#000000" />
<rect x="50" y="46" width="4" height="6" fill="#000000" />
<rect x="14" y="52" width="2" height="2" fill="#495D63" />
<rect x="50" y="52" width="2" height="2" fill="#495D63" />
</svg>