<?xml version="1.0" encoding="UTF-8" ?>
<svg version="1.1" width="64" height="64" xmlns="http://www.w3.org/2000/svg" shape-rendering="crispEdges">
<rect x="20" y="10" width="2" height="2" fill="#495D63" />
<rect x="22" y="10" width="20" height="2" fill="#000000" />
<rect x="16" y="12" width="6" height="2" fill="#000000" />
<rect x="40" y="12" width="2" height="2" fill="#495D63" />
<rect x="42" y="12" width="4" height="2" fill="#000000" />
<rect x="14" y="14" width="2" height="2" fill="#000000" />
<rect x="16" y="14" width="2" height="2" fill="#495D63" />
<rect x="46" y="14" width="2" height="2" fill="#000000" />
<rect x="12" y="16" width="2" height="4" fill="#000000" />
<rect x="14" y="16" width="2" height="2" fill="#495D63" />
<rect x="48" y="16" width="2" height="2" fill="#000000" />
<rect x="32" y="18" width="4" height="6" fill="#000000" />
<rect x="50" y="18" width="2" height="2" fill="#000000" />
<rect x="10" y="20" width="2" height="14" fill="#000000" />
<rect x="12" y="20" width="2" height="2" fill="#495D63" />
<rect x="30" y="20" width="2" height="2" fill="#000000" />
<rect x="36" y="20" width="2" height="2" fill="#000000" />
<rect x="52" y="20" width="2" height="2" fill="#000000" />
<rect x="30" y="22" width="2" height="2" fill="#495D63" />
<rect x="36" y="22" width="2" height="2" fill="#495D63" />
<rect x="52" y="22" width="2" height="2" fill="#495D63" />
<rect x="54" y="22" width="2" height="4" fill="#000000" />
<rect x="28" y="26" width="8" height="2" fill="#000000" />
<rect x="54" y="26" width="2" height="2" fill="#495D63" />
<rect x="56" y="26" width="2" height="12" fill="#000000" />
<rect x="26" y="28" width="2" height="2" fill="#000000" />
<rect x="28" y="28" width="2" height="2" fill="#495D63" />
<rect x="30" y="28" width="8" height="2" fill="#000000" />
<rect x="32" y="30" width="6" height="2" fill="#000000" />
<rect x="32" y="32" width="4" height="10" fill="#000000" />
<rect x="36" y="32" width="2" height="2" fill="#495D63" />
<rect x="12" y="34" width="2" height="4" fill="#000000" />
<rect x="30" y="34" width="2" height="2" fill="#495D63" />
<rect x="30" y="36" width="2" height="4" fill="#000000" />
<rect x="38" y="36" width="2" height="2" fill="#495D63" />
<rect x="40" y="36" width="2" height="2" fill="#000000" />
<rect x="14" y="38" width="2" height="2" fill="#495D63" />
<rect x="36" y="38" width="4" height="2" fill="#000000" />
<rect x="54" y="38" width="2" height="4" fill="#000000" />
<rect x="16" y="40" width="2" height="2" fill="#495D63" />
<rect x="30" y="40" width="2" height="2" fill="#495D63" />
<rect x="36" y="40" width="2" height="2" fill="#000000" />
<rect x="18" y="42" width="2" height="2" fill="#000000" />
<rect x="52" y="42" width="2" height="2" fill="#000000" />
<rect x="20" y="44" width="2" height="6" fill="#000000" />
<rect x="48" y="44" width="4" height="2" fill="#000000" />
<rect x="44" y="46" width="4" height="2" fill="#000000" />
<rect x="18" y="48" width="2" height="2" fill="#495D63" />
<rect x="26" y="48" width="2" height="2" fill="#495D63" />
<rect x="28" y="48" width="2" height="2" fill="#000000" />
<rect x="30" y="48" width="10" height="2" fill="#495D63" />
<rect x="40" y="48" width="4" height="2" fill="#000000" />
<rect x="44" y="48" width="2" height="2" fill="#495D63" />
<rect x="18" y="50" width="2" height="2" fill="#000000" />
<rect x="24" y="50" width="4" height="2" fill="#000000" />
<rect x="16" y="52" width="4" height="2" fill="#495D63" />
<rect x="20" y="52" width="4" height="2" fill="#000000" />
<rect x="14" y="54" width="4" height="2" fill="#495D63" />
</svg>