<?xml version="1.0" encoding="UTF-8" ?>
<svg version="1.1" width="64" height="64" xmlns="http://www.w3.org/2000/svg" shape-rendering="crispEdges">
<rect x="20" y="12" width="4" height="4" fill="#FFFFFF" />
<rect x="18" y="14" width="2" height="6" fill="#FFFFFF" />
<rect x="16" y="16" width="2" height="6" fill="#FFFFFF" />
<rect x="20" y="16" width="2" height="2" fill="#FFFFFF" />
<rect x="22" y="16" width="2" height="2" fill="#495D63" />
<rect x="14" y="18" width="2" height="6" fill="#FFFFFF" />
<rect x="20" y="18" width="2" height="2" fill="#495D63" />
<rect x="36" y="18" width="2" height="2" fill="#495D63" />
<rect x="38" y="18" width="2" height="8" fill="#FFFFFF" />
<rect x="40" y="18" width="2" height="2" fill="#495D63" />
<rect x="12" y="20" width="2" height="6" fill="#FFFFFF" />
<rect x="18" y="20" width="2" height="2" fill="#495D63" />
<rect x="36" y="20" width="2" height="8" fill="#FFFFFF" />
<rect x="40" y="20" width="2" height="2" fill="#FFFFFF" />
<rect x="10" y="22" width="2" height="12" fill="#FFFFFF" />
<rect x="16" y="22" width="2" height="2" fill="#495D63" />
<rect x="34" y="22" width="2" height="2" fill="#495D63" />
<rect x="8" y="24" width="2" height="8" fill="#FFFFFF" />
<rect x="14" y="24" width="2" height="2" fill="#495D63" />
<rect x="34" y="24" width="2" height="8" fill="#FFFFFF" />
<rect x="42" y="24" width="4" height="4" fill="#FFFFFF" />
<rect x="6" y="26" width="2" height="4" fill="#FFFFFF" />
<rect x="32" y="26" width="2" height="2" fill="#495D63" />
<rect x="46" y="26" width="2" height="6" fill="#FFFFFF" />
<rect x="12" y="28" width="2" height="2" fill="#495D63" />
<rect x="32" y="28" width="2" height="8" fill="#FFFFFF" />
<rect x="36" y="28" width="2" height="2" fill="#495D63" />
<rect x="42" y="28" width="2" height="2" fill="#495D63" />
<rect x="44" y="28" width="2" height="2" fill="#FFFFFF" />
<rect x="48" y="28" width="2" height="6" fill="#FFFFFF" />
<rect x="12" y="30" width="2" height="6" fill="#FFFFFF" />
<rect x="14" y="30" width="2" height="2" fill="#495D63" />
<rect x="30" y="30" width="2" height="2" fill="#495D63" />
<rect x="44" y="30" width="2" height="2" fill="#495D63" />
<rect x="50" y="30" width="2" height="6" fill="#FFFFFF" />
<rect x="14" y="32" width="2" height="6" fill="#FFFFFF" />
<rect x="16" y="32" width="2" height="2" fill="#495D63" />
<rect x="30" y="32" width="2" height="8" fill="#FFFFFF" />
<rect x="34" y="32" width="2" height="2" fill="#495D63" />
<rect x="46" y="32" width="2" height="2" fill="#495D63" />
<rect x="52" y="32" width="2" height="6" fill="#FFFFFF" />
<rect x="16" y="34" width="2" height="6" fill="#FFFFFF" />
<rect x="18" y="34" width="2" height="2" fill="#495D63" />
<rect x="28" y="34" width="2" height="2" fill="#495D63" />
<rect x="48" y="34" width="2" height="2" fill="#495D63" />
<rect x="54" y="34" width="2" height="12" fill="#FFFFFF" />
<rect x="18" y="36" width="2" height="6" fill="#FFFFFF" />
<rect x="20" y="36" width="2" height="2" fill="#495D63" />
<rect x="28" y="36" width="2" height="8" fill="#FFFFFF" />
<rect x="32" y="36" width="2" height="2" fill="#495D63" />
<rect x="50" y="36" width="2" height="2" fill="#495D63" />
<rect x="56" y="36" width="2" height="8" fill="#FFFFFF" />
<rect x="20" y="38" width="2" height="4" fill="#FFFFFF" />
<rect x="26" y="38" width="2" height="2" fill="#495D63" />
<rect x="52" y="38" width="2" height="2" fill="#495D63" />
<rect x="58" y="38" width="2" height="4" fill="#FFFFFF" />
<rect x="26" y="40" width="2" height="8" fill="#FFFFFF" />
<rect x="30" y="40" width="2" height="2" fill="#495D63" />
<rect x="24" y="42" width="2" height="2" fill="#495D63" />
<rect x="50" y="42" width="2" height="2" fill="#495D63" />
<rect x="52" y="42" width="2" height="6" fill="#FFFFFF" />
<rect x="24" y="44" width="2" height="2" fill="#FFFFFF" />
<rect x="28" y="44" width="2" height="2" fill="#495D63" />
<rect x="48" y="44" width="2" height="2" fill="#495D63" />
<rect x="50" y="44" width="2" height="6" fill="#FFFFFF" />
<rect x="24" y="46" width="2" height="2" fill="#495D63" />
<rect x="46" y="46" width="2" height="2" fill="#495D63" />
<rect x="48" y="46" width="2" height="6" fill="#FFFFFF" />
<rect x="44" y="48" width="2" height="2" fill="#495D63" />
<rect x="46" y="48" width="2" height="6" fill="#FFFFFF" />
<rect x="44" y="50" width="2" height="4" fill="#FFFFFF" />
</svg>