<?xml version="1.0" encoding="UTF-8" ?>
<svg version="1.1" width="64" height="64" xmlns="http://www.w3.org/2000/svg" shape-rendering="crispEdges">
<rect x="20" y="16" width="4" height="4" fill="#FFFFFF" />
<rect x="42" y="16" width="4" height="4" fill="#FFFFFF" />
<rect x="18" y="18" width="2" height="6" fill="#FFFFFF" />
<rect x="46" y="18" width="2" height="6" fill="#FFFFFF" />
<rect x="16" y="20" width="2" height="6" fill="#FFFFFF" />
<rect x="20" y="20" width="2" height="2" fill="#FFFFFF" />
<rect x="22" y="20" width="2" height="2" fill="#495D63" />
<rect x="42" y="20" width="2" height="2" fill="#495D63" />
<rect x="44" y="20" width="2" height="2" fill="#FFFFFF" />
<rect x="48" y="20" width="2" height="6" fill="#FFFFFF" />
<rect x="14" y="22" width="2" height="6" fill="#FFFFFF" />
<rect x="20" y="22" width="2" height="2" fill="#495D63" />
<rect x="44" y="22" width="2" height="2" fill="#495D63" />
<rect x="50" y="22" width="2" height="6" fill="#FFFFFF" />
<rect x="12" y="24" width="2" height="6" fill="#FFFFFF" />
<rect x="18" y="24" width="2" height="2" fill="#495D63" />
<rect x="46" y="24" width="2" height="2" fill="#495D63" />
<rect x="52" y="24" width="2" height="6" fill="#FFFFFF" />
<rect x="10" y="26" width="2" height="14" fill="#FFFFFF" />
<rect x="16" y="26" width="2" height="2" fill="#495D63" />
<rect x="48" y="26" width="2" height="2" fill="#495D63" />
<rect x="54" y="26" width="2" height="14" fill="#FFFFFF" />
<rect x="6" y="28" width="2" height="2" fill="#495D63" />
<rect x="8" y="28" width="2" height="10" fill="#FFFFFF" />
<rect x="14" y="28" width="2" height="2" fill="#495D63" />
<rect x="50" y="28" width="2" height="2" fill="#495D63" />
<rect x="56" y="28" width="2" height="10" fill="#FFFFFF" />
<rect x="58" y="28" width="2" height="2" fill="#495D63" />
<rect x="6" y="30" width="2" height="6" fill="#FFFFFF" />
<rect x="58" y="30" width="2" height="6" fill="#FFFFFF" />
<rect x="12" y="34" width="2" height="2" fill="#495D63" />
<rect x="20" y="34" width="2" height="2" fill="#495D63" />
<rect x="22" y="34" width="2" height="6" fill="#FFFFFF" />
<rect x="24" y="34" width="2" height="2" fill="#495D63" />
<rect x="30" y="34" width="2" height="2" fill="#495D63" />
<rect x="32" y="34" width="2" height="6" fill="#FFFFFF" />
<rect x="34" y="34" width="2" height="2" fill="#495D63" />
<rect x="40" y="34" width="2" height="2" fill="#495D63" />
<rect x="42" y="34" width="2" height="6" fill="#FFFFFF" />
<rect x="44" y="34" width="2" height="2" fill="#495D63" />
<rect x="52" y="34" width="2" height="2" fill="#495D63" />
<rect x="6" y="36" width="2" height="2" fill="#495D63" />
<rect x="12" y="36" width="2" height="6" fill="#FFFFFF" />
<rect x="14" y="36" width="2" height="2" fill="#495D63" />
<rect x="20" y="36" width="2" height="2" fill="#FFFFFF" />
<rect x="24" y="36" width="2" height="2" fill="#FFFFFF" />
<rect x="30" y="36" width="2" height="2" fill="#FFFFFF" />
<rect x="34" y="36" width="2" height="2" fill="#FFFFFF" />
<rect x="40" y="36" width="2" height="2" fill="#FFFFFF" />
<rect x="44" y="36" width="2" height="2" fill="#FFFFFF" />
<rect x="50" y="36" width="2" height="2" fill="#495D63" />
<rect x="52" y="36" width="2" height="6" fill="#FFFFFF" />
<rect x="58" y="36" width="2" height="2" fill="#495D63" />
<rect x="14" y="38" width="2" height="6" fill="#FFFFFF" />
<rect x="16" y="38" width="2" height="2" fill="#495D63" />
<rect x="20" y="38" width="2" height="2" fill="#495D63" />
<rect x="24" y="38" width="2" height="2" fill="#495D63" />
<rect x="30" y="38" width="2" height="2" fill="#495D63" />
<rect x="34" y="38" width="2" height="2" fill="#495D63" />
<rect x="40" y="38" width="2" height="2" fill="#495D63" />
<rect x="44" y="38" width="2" height="2" fill="#495D63" />
<rect x="48" y="38" width="2" height="2" fill="#495D63" />
<rect x="50" y="38" width="2" height="6" fill="#FFFFFF" />
<rect x="16" y="40" width="2" height="6" fill="#FFFFFF" />
<rect x="18" y="40" width="2" height="2" fill="#495D63" />
<rect x="46" y="40" width="2" height="2" fill="#495D63" />
<rect x="48" y="40" width="2" height="6" fill="#FFFFFF" />
<rect x="18" y="42" width="2" height="6" fill="#FFFFFF" />
<rect x="20" y="42" width="2" height="2" fill="#495D63" />
<rect x="44" y="42" width="2" height="2" fill="#495D63" />
<rect x="46" y="42" width="2" height="6" fill="#FFFFFF" />
<rect x="20" y="44" width="2" height="4" fill="#FFFFFF" />
<rect x="44" y="44" width="2" height="4" fill="#FFFFFF" />
</svg>