<?xml version="1.0" encoding="UTF-8" ?>
<svg version="1.1" width="32" height="32" xmlns="http://www.w3.org/2000/svg" shape-rendering="crispEdges">
<rect x="13" y="2" width="7" height="5" fill="#000000" />
<rect x="10" y="3" width="3" height="4" fill="#000000" />
<rect x="20" y="3" width="3" height="4" fill="#000000" />
<rect x="9" y="4" width="1" height="3" fill="#000000" />
<rect x="23" y="4" width="1" height="9" fill="#000000" />
<rect x="8" y="5" width="1" height="8" fill="#000000" />
<rect x="24" y="5" width="1" height="21" fill="#000000" />
<rect x="7" y="6" width="1" height="14" fill="#000000" />
<rect x="25" y="6" width="1" height="19" fill="#000000" />
<rect x="6" y="7" width="1" height="14" fill="#000000" />
<rect x="10" y="7" width="1" height="1" fill="#969696" />
<rect x="11" y="7" width="2" height="1" fill="#000000" />
<rect x="13" y="7" width="1" height="1" fill="#969696" />
<rect x="17" y="7" width="1" height="1" fill="#969696" />
<rect x="18" y="7" width="2" height="1" fill="#000000" />
<rect x="20" y="7" width="1" height="1" fill="#969696" />
<rect x="26" y="7" width="1" height="17" fill="#000000" />
<rect x="5" y="8" width="1" height="15" fill="#000000" />
<rect x="27" y="8" width="1" height="15" fill="#000000" />
<rect x="4" y="9" width="1" height="13" fill="#000000" />
<rect x="28" y="9" width="1" height="13" fill="#000000" />
<rect x="3" y="12" width="1" height="7" fill="#000000" />
<rect x="29" y="12" width="1" height="7" fill="#000000" />
<rect x="8" y="13" width="1" height="1" fill="#969696" />
<rect x="23" y="13" width="1" height="1" fill="#969696" />
<rect x="8" y="16" width="1" height="4" fill="#000000" />
<rect x="23" y="16" width="1" height="11" fill="#000000" />
<rect x="9" y="17" width="1" height="3" fill="#000000" />
<rect x="22" y="17" width="1" height="11" fill="#000000" />
<rect x="10" y="18" width="1" height="2" fill="#000000" />
<rect x="21" y="18" width="1" height="10" fill="#000000" />
<rect x="11" y="19" width="1" height="2" fill="#000000" />
<rect x="12" y="19" width="1" height="1" fill="#969696" />
<rect x="19" y="19" width="1" height="1" fill="#969696" />
<rect x="20" y="19" width="1" height="8" fill="#000000" />
<rect x="7" y="20" width="1" height="1" fill="#969696" />
<rect x="10" y="20" width="1" height="1" fill="#969696" />
<rect x="12" y="20" width="2" height="1" fill="#000000" />
<rect x="18" y="20" width="2" height="1" fill="#000000" />
<rect x="6" y="21" width="1" height="1" fill="#969696" />
<rect x="8" y="21" width="2" height="5" fill="#000000" />
<rect x="11" y="21" width="1" height="1" fill="#969696" />
<rect x="12" y="21" width="1" height="1" fill="#000000" />
<rect x="13" y="21" width="1" height="1" fill="#969696" />
<rect x="18" y="21" width="1" height="1" fill="#969696" />
<rect x="19" y="21" width="1" height="2" fill="#000000" />
<rect x="6" y="22" width="2" height="2" fill="#000000" />
<rect x="10" y="23" width="1" height="5" fill="#000000" />
<rect x="11" y="23" width="1" height="1" fill="#969696" />
<rect x="7" y="24" width="1" height="1" fill="#000000" />
<rect x="11" y="24" width="1" height="4" fill="#000000" />
<rect x="12" y="24" width="1" height="1" fill="#969696" />
<rect x="12" y="25" width="1" height="2" fill="#000000" />
<rect x="9" y="26" width="1" height="1" fill="#000000" />
<rect x="12" y="27" width="1" height="1" fill="#969696" />
<rect x="20" y="27" width="1" height="1" fill="#969696" />
</svg>