<?xml version="1.0" encoding="UTF-8" ?>
<svg version="1.1" width="32" height="32" xmlns="http://www.w3.org/2000/svg" shape-rendering="crispEdges">
<rect x="8" y="4" width="17" height="7" fill="#D12942" />
<rect x="7" y="5" width="1" height="7" fill="#D12942" />
<rect x="25" y="5" width="1" height="7" fill="#D12942" />
<rect x="6" y="6" width="1" height="6" fill="#D12942" />
<rect x="26" y="6" width="1" height="6" fill="#D12942" />
<rect x="5" y="9" width="1" height="2" fill="#D12942" />
<rect x="27" y="9" width="1" height="2" fill="#D12942" />
<rect x="8" y="11" width="1" height="1" fill="#D12942" />
<rect x="12" y="11" width="3" height="1" fill="#D12942" />
<rect x="18" y="11" width="3" height="1" fill="#D12942" />
<rect x="24" y="11" width="1" height="1" fill="#D12942" />
<rect x="9" y="12" width="3" height="3" fill="#D12942" />
<rect x="15" y="12" width="3" height="4" fill="#D12942" />
<rect x="21" y="12" width="3" height="3" fill="#D12942" />
<rect x="8" y="13" width="1" height="15" fill="#D12942" />
<rect x="12" y="13" width="3" height="2" fill="#D12942" />
<rect x="18" y="13" width="3" height="2" fill="#D12942" />
<rect x="24" y="13" width="1" height="15" fill="#D12942" />
<rect x="9" y="15" width="2" height="3" fill="#D12942" />
<rect x="14" y="15" width="1" height="1" fill="#D12942" />
<rect x="18" y="15" width="1" height="1" fill="#D12942" />
<rect x="22" y="15" width="2" height="2" fill="#D12942" />
<rect x="23" y="17" width="1" height="7" fill="#D12942" />
<rect x="9" y="18" width="1" height="6" fill="#D12942" />
<rect x="16" y="18" width="1" height="3" fill="#D12942" />
<rect x="15" y="19" width="1" height="1" fill="#D12942" />
<rect x="17" y="19" width="1" height="1" fill="#D12942" />
<rect x="7" y="20" width="1" height="7" fill="#D12942" />
<rect x="25" y="20" width="1" height="7" fill="#D12942" />
<rect x="14" y="22" width="5" height="6" fill="#D12942" />
<rect x="13" y="23" width="1" height="5" fill="#D12942" />
<rect x="19" y="23" width="1" height="5" fill="#D12942" />
<rect x="12" y="24" width="1" height="4" fill="#D12942" />
<rect x="20" y="24" width="1" height="4" fill="#D12942" />
<rect x="11" y="25" width="1" height="3" fill="#D12942" />
<rect x="21" y="25" width="1" height="3" fill="#D12942" />
<rect x="9" y="26" width="2" height="2" fill="#D12942" />
<rect x="22" y="26" width="2" height="2" fill="#D12942" />
</svg>