<?xml version="1.0" encoding="UTF-8" ?>
<svg version="1.1" width="32" height="32" xmlns="http://www.w3.org/2000/svg" shape-rendering="crispEdges">
<rect x="4" y="4" width="25" height="5" fill="#0A5AAD" />
<rect x="3" y="5" width="1" height="24" fill="#0A5AAD" />
<rect x="29" y="5" width="1" height="24" fill="#0A5AAD" />
<rect x="4" y="9" width="3" height="21" fill="#0A5AAD" />
<rect x="7" y="9" width="1" height="1" fill="#969696" />
<rect x="10" y="9" width="1" height="1" fill="#969696" />
<rect x="11" y="9" width="18" height="7" fill="#0A5AAD" />
<rect x="7" y="12" width="1" height="1" fill="#969696" />
<rect x="10" y="12" width="1" height="1" fill="#969696" />
<rect x="7" y="13" width="4" height="3" fill="#0A5AAD" />
<rect x="7" y="16" width="1" height="1" fill="#969696" />
<rect x="10" y="16" width="1" height="1" fill="#969696" />
<rect x="11" y="16" width="3" height="14" fill="#0A5AAD" />
<rect x="14" y="16" width="1" height="1" fill="#969696" />
<rect x="16" y="16" width="1" height="1" fill="#969696" />
<rect x="17" y="16" width="2" height="1" fill="#0A5AAD" />
<rect x="19" y="16" width="1" height="1" fill="#969696" />
<rect x="25" y="16" width="1" height="2" fill="#969696" />
<rect x="26" y="16" width="3" height="1" fill="#0A5AAD" />
<rect x="17" y="17" width="1" height="1" fill="#0A5AAD" />
<rect x="18" y="17" width="1" height="1" fill="#969696" />
<rect x="26" y="17" width="1" height="1" fill="#969696" />
<rect x="27" y="17" width="2" height="13" fill="#0A5AAD" />
<rect x="21" y="20" width="1" height="10" fill="#0A5AAD" />
<rect x="22" y="20" width="1" height="1" fill="#969696" />
<rect x="19" y="21" width="1" height="1" fill="#969696" />
<rect x="20" y="21" width="1" height="9" fill="#0A5AAD" />
<rect x="22" y="21" width="1" height="9" fill="#0A5AAD" />
<rect x="18" y="22" width="2" height="8" fill="#0A5AAD" />
<rect x="7" y="26" width="1" height="1" fill="#969696" />
<rect x="10" y="26" width="1" height="1" fill="#969696" />
<rect x="14" y="26" width="1" height="1" fill="#969696" />
<rect x="17" y="26" width="1" height="1" fill="#969696" />
<rect x="23" y="26" width="1" height="1" fill="#969696" />
<rect x="26" y="26" width="1" height="1" fill="#969696" />
<rect x="7" y="27" width="4" height="3" fill="#0A5AAD" />
<rect x="14" y="27" width="4" height="3" fill="#0A5AAD" />
<rect x="23" y="27" width="4" height="3" fill="#0A5AAD" />
</svg>