<?xml version="1.0" encoding="UTF-8" ?>
<svg version="1.1" width="32" height="32" xmlns="http://www.w3.org/2000/svg" shape-rendering="crispEdges">
<rect x="16" y="7" width="3" height="1" fill="#090909" />
<rect x="15" y="8" width="1" height="1" fill="#090909" />
<rect x="16" y="8" width="1" height="1" fill="#495D63" />
<rect x="17" y="8" width="1" height="3" fill="#090909" />
<rect x="19" y="8" width="1" height="1" fill="#090909" />
<rect x="14" y="9" width="1" height="1" fill="#090909" />
<rect x="15" y="9" width="1" height="1" fill="#495D63" />
<rect x="20" y="9" width="1" height="1" fill="#090909" />
<rect x="13" y="10" width="1" height="1" fill="#090909" />
<rect x="14" y="10" width="1" height="1" fill="#495D63" />
<rect x="21" y="10" width="1" height="1" fill="#090909" />
<rect x="12" y="11" width="1" height="1" fill="#090909" />
<rect x="17" y="11" width="1" height="7" fill="#495D63" />
<rect x="22" y="11" width="1" height="1" fill="#090909" />
<rect x="11" y="12" width="1" height="1" fill="#090909" />
<rect x="23" y="12" width="1" height="1" fill="#090909" />
<rect x="10" y="13" width="1" height="1" fill="#090909" />
<rect x="24" y="13" width="1" height="1" fill="#090909" />
<rect x="9" y="14" width="1" height="1" fill="#090909" />
<rect x="25" y="14" width="1" height="1" fill="#090909" />
<rect x="8" y="15" width="1" height="1" fill="#090909" />
<rect x="9" y="15" width="1" height="1" fill="#495D63" />
<rect x="26" y="15" width="1" height="3" fill="#090909" />
<rect x="7" y="16" width="1" height="1" fill="#090909" />
<rect x="8" y="16" width="1" height="1" fill="#495D63" />
<rect x="18" y="16" width="2" height="4" fill="#090909" />
<rect x="6" y="17" width="1" height="3" fill="#090909" />
<rect x="7" y="17" width="1" height="1" fill="#495D63" />
<rect x="25" y="17" width="1" height="1" fill="#495D63" />
<rect x="7" y="18" width="3" height="1" fill="#090909" />
<rect x="10" y="18" width="7" height="1" fill="#495D63" />
<rect x="17" y="18" width="1" height="3" fill="#090909" />
<rect x="24" y="18" width="1" height="1" fill="#495D63" />
<rect x="25" y="18" width="1" height="1" fill="#090909" />
<rect x="15" y="19" width="2" height="2" fill="#090909" />
<rect x="24" y="19" width="1" height="1" fill="#090909" />
<rect x="7" y="20" width="1" height="1" fill="#090909" />
<rect x="18" y="20" width="1" height="1" fill="#090909" />
<rect x="19" y="20" width="1" height="1" fill="#495D63" />
<rect x="23" y="20" width="1" height="1" fill="#090909" />
<rect x="8" y="21" width="1" height="1" fill="#090909" />
<rect x="22" y="21" width="1" height="1" fill="#090909" />
<rect x="9" y="22" width="1" height="1" fill="#090909" />
<rect x="21" y="22" width="1" height="1" fill="#090909" />
<rect x="10" y="23" width="1" height="1" fill="#090909" />
<rect x="20" y="23" width="1" height="1" fill="#090909" />
<rect x="11" y="24" width="1" height="1" fill="#090909" />
<rect x="18" y="24" width="1" height="1" fill="#495D63" />
<rect x="19" y="24" width="1" height="1" fill="#090909" />
<rect x="12" y="25" width="1" height="1" fill="#090909" />
<rect x="17" y="25" width="1" height="1" fill="#495D63" />
<rect x="18" y="25" width="1" height="1" fill="#090909" />
<rect x="13" y="26" width="1" height="1" fill="#090909" />
<rect x="14" y="26" width="1" height="1" fill="#495D63" />
<rect x="17" y="26" width="1" height="1" fill="#090909" />
<rect x="14" y="27" width="3" height="1" fill="#090909" />
</svg>