<?xml version="1.0" encoding="UTF-8" ?>
<svg version="1.1" width="128" height="128" xmlns="http://www.w3.org/2000/svg" shape-rendering="crispEdges">
<rect x="72" y="6" width="8" height="20" fill="#000000" />
<rect x="68" y="8" width="4" height="20" fill="#000000" />
<rect x="80" y="8" width="4" height="24" fill="#000000" />
<rect x="36" y="10" width="12" height="2" fill="#000000" />
<rect x="66" y="10" width="2" height="20" fill="#000000" />
<rect x="84" y="10" width="2" height="36" fill="#000000" />
<rect x="34" y="12" width="2" height="2" fill="#000000" />
<rect x="36" y="12" width="2" height="2" fill="#291313" />
<rect x="38" y="12" width="8" height="16" fill="#000000" />
<rect x="46" y="12" width="2" height="2" fill="#291313" />
<rect x="48" y="12" width="6" height="2" fill="#000000" />
<rect x="64" y="12" width="2" height="20" fill="#000000" />
<rect x="86" y="12" width="2" height="38" fill="#000000" />
<rect x="32" y="14" width="2" height="2" fill="#000000" />
<rect x="34" y="14" width="2" height="2" fill="#291313" />
<rect x="36" y="14" width="2" height="46" fill="#000000" />
<rect x="46" y="14" width="6" height="10" fill="#000000" />
<rect x="52" y="14" width="2" height="2" fill="#291313" />
<rect x="54" y="14" width="2" height="2" fill="#000000" />
<rect x="62" y="14" width="2" height="18" fill="#000000" />
<rect x="88" y="14" width="2" height="46" fill="#000000" />
<rect x="30" y="16" width="2" height="2" fill="#000000" />
<rect x="32" y="16" width="2" height="2" fill="#291313" />
<rect x="34" y="16" width="2" height="50" fill="#000000" />
<rect x="52" y="16" width="2" height="14" fill="#000000" />
<rect x="54" y="16" width="2" height="2" fill="#291313" />
<rect x="56" y="16" width="2" height="16" fill="#000000" />
<rect x="60" y="16" width="2" height="16" fill="#000000" />
<rect x="90" y="16" width="2" height="2" fill="#000000" />
<rect x="28" y="18" width="2" height="2" fill="#000000" />
<rect x="30" y="18" width="2" height="2" fill="#291313" />
<rect x="32" y="18" width="2" height="48" fill="#000000" />
<rect x="54" y="18" width="2" height="14" fill="#000000" />
<rect x="58" y="18" width="2" height="6" fill="#291313" />
<rect x="90" y="18" width="2" height="2" fill="#291313" />
<rect x="92" y="18" width="4" height="2" fill="#000000" />
<rect x="24" y="20" width="4" height="4" fill="#000000" />
<rect x="28" y="20" width="2" height="2" fill="#291313" />
<rect x="30" y="20" width="2" height="46" fill="#000000" />
<rect x="90" y="20" width="2" height="40" fill="#000000" />
<rect x="92" y="20" width="2" height="8" fill="#291313" />
<rect x="94" y="20" width="4" height="8" fill="#000000" />
<rect x="20" y="22" width="4" height="40" fill="#000000" />
<rect x="28" y="22" width="2" height="48" fill="#000000" />
<rect x="98" y="22" width="2" height="34" fill="#000000" />
<rect x="18" y="24" width="2" height="46" fill="#000000" />
<rect x="24" y="24" width="2" height="2" fill="#000000" />
<rect x="26" y="24" width="2" height="2" fill="#291313" />
<rect x="46" y="24" width="2" height="2" fill="#000000" />
<rect x="48" y="24" width="2" height="30" fill="#FFE1D4" />
<rect x="50" y="24" width="2" height="4" fill="#000000" />
<rect x="58" y="24" width="2" height="8" fill="#000000" />
<rect x="100" y="24" width="2" height="34" fill="#000000" />
<rect x="16" y="26" width="2" height="14" fill="#000000" />
<rect x="24" y="26" width="2" height="12" fill="#291313" />
<rect x="26" y="26" width="2" height="12" fill="#000000" />
<rect x="46" y="26" width="2" height="26" fill="#FFE1D4" />
<rect x="72" y="26" width="6" height="34" fill="#FFE1D4" />
<rect x="78" y="26" width="2" height="2" fill="#000000" />
<rect x="102" y="26" width="2" height="34" fill="#000000" />
<rect x="14" y="28" width="2" height="30" fill="#000000" />
<rect x="38" y="28" width="6" height="2" fill="#000000" />
<rect x="44" y="28" width="2" height="24" fill="#FFE1D4" />
<rect x="50" y="28" width="2" height="26" fill="#FFE1D4" />
<rect x="68" y="28" width="4" height="36" fill="#FFE1D4" />
<rect x="78" y="28" width="2" height="32" fill="#FFE1D4" />
<rect x="92" y="28" width="2" height="28" fill="#000000" />
<rect x="94" y="28" width="2" height="8" fill="#291313" />
<rect x="96" y="28" width="2" height="22" fill="#000000" />
<rect x="12" y="30" width="2" height="8" fill="#000000" />
<rect x="38" y="30" width="4" height="24" fill="#000000" />
<rect x="42" y="30" width="2" height="20" fill="#FFE1D4" />
<rect x="52" y="30" width="2" height="26" fill="#FFE1D4" />
<rect x="66" y="30" width="2" height="66" fill="#FFE1D4" />
<rect x="54" y="32" width="12" height="24" fill="#FFE1D4" />
<rect x="80" y="32" width="2" height="26" fill="#FFE1D4" />
<rect x="82" y="32" width="2" height="6" fill="#000000" />
<rect x="104" y="32" width="2" height="4" fill="#000000" />
<rect x="106" y="34" width="2" height="20" fill="#000000" />
<rect x="94" y="36" width="2" height="22" fill="#000000" />
<rect x="104" y="36" width="2" height="8" fill="#291313" />
<rect x="108" y="36" width="2" height="26" fill="#000000" />
<rect x="24" y="38" width="2" height="20" fill="#000000" />
<rect x="26" y="38" width="2" height="4" fill="#291313" />
<rect x="82" y="38" width="2" height="18" fill="#FFE1D4" />
<rect x="110" y="38" width="2" height="26" fill="#000000" />
<rect x="16" y="40" width="2" height="14" fill="#291313" />
<rect x="112" y="40" width="2" height="2" fill="#000000" />
<rect x="26" y="42" width="2" height="12" fill="#000000" />
<rect x="112" y="42" width="2" height="2" fill="#291313" />
<rect x="114" y="42" width="2" height="4" fill="#000000" />
<rect x="104" y="44" width="2" height="6" fill="#000000" />
<rect x="112" y="44" width="2" height="16" fill="#000000" />
<rect x="84" y="46" width="2" height="8" fill="#FFE1D4" />
<rect x="114" y="46" width="2" height="2" fill="#291313" />
<rect x="12" y="50" width="2" height="22" fill="#000000" />
<rect x="42" y="50" width="2" height="6" fill="#000000" />
<rect x="86" y="50" width="2" height="4" fill="#FFE1D4" />
<rect x="96" y="50" width="2" height="6" fill="#291313" />
<rect x="104" y="50" width="2" height="4" fill="#291313" />
<rect x="44" y="52" width="4" height="4" fill="#000000" />
<rect x="16" y="54" width="2" height="16" fill="#000000" />
<rect x="26" y="54" width="2" height="4" fill="#291313" />
<rect x="38" y="54" width="2" height="6" fill="#000000" />
<rect x="40" y="54" width="2" height="10" fill="#FFE1D4" />
<rect x="48" y="54" width="4" height="4" fill="#000000" />
<rect x="84" y="54" width="4" height="4" fill="#000000" />
<rect x="104" y="54" width="2" height="34" fill="#000000" />
<rect x="106" y="54" width="2" height="8" fill="#291313" />
<rect x="10" y="56" width="2" height="24" fill="#000000" />
<rect x="42" y="56" width="4" height="8" fill="#FFE1D4" />
<rect x="46" y="56" width="2" height="2" fill="#000000" />
<rect x="52" y="56" width="4" height="4" fill="#000000" />
<rect x="56" y="56" width="10" height="2" fill="#FFE1D4" />
<rect x="82" y="56" width="2" height="6" fill="#000000" />
<rect x="92" y="56" width="2" height="2" fill="#291313" />
<rect x="96" y="56" width="2" height="4" fill="#000000" />
<rect x="98" y="56" width="2" height="2" fill="#291313" />
<rect x="14" y="58" width="2" height="8" fill="#291313" />
<rect x="24" y="58" width="2" height="4" fill="#291313" />
<rect x="26" y="58" width="2" height="12" fill="#000000" />
<rect x="46" y="58" width="4" height="6" fill="#FFE1D4" />
<rect x="50" y="58" width="2" height="2" fill="#000000" />
<rect x="56" y="58" width="2" height="6" fill="#000000" />
<rect x="58" y="58" width="8" height="38" fill="#FFE1D4" />
<rect x="80" y="58" width="2" height="6" fill="#000000" />
<rect x="84" y="58" width="2" height="2" fill="#000000" />
<rect x="86" y="58" width="2" height="8" fill="#FFE1D4" />
<rect x="92" y="58" width="2" height="4" fill="#000000" />
<rect x="94" y="58" width="2" height="2" fill="#291313" />
<rect x="98" y="58" width="2" height="14" fill="#000000" />
<rect x="100" y="58" width="2" height="4" fill="#291313" />
<rect x="36" y="60" width="4" height="2" fill="#FFE1D4" />
<rect x="50" y="60" width="4" height="10" fill="#FFE1D4" />
<rect x="54" y="60" width="2" height="4" fill="#000000" />
<rect x="72" y="60" width="4" height="2" fill="#FFE1D4" />
<rect x="76" y="60" width="4" height="6" fill="#000000" />
<rect x="84" y="60" width="2" height="6" fill="#FFE1D4" />
<rect x="88" y="60" width="4" height="6" fill="#FFE1D4" />
<rect x="94" y="60" width="2" height="4" fill="#000000" />
<rect x="96" y="60" width="2" height="2" fill="#291313" />
<rect x="102" y="60" width="2" height="4" fill="#291313" />
<rect x="112" y="60" width="2" height="2" fill="#291313" />
<rect x="114" y="60" width="2" height="4" fill="#000000" />
<rect x="20" y="62" width="2" height="8" fill="#000000" />
<rect x="22" y="62" width="2" height="2" fill="#291313" />
<rect x="24" y="62" width="2" height="10" fill="#000000" />
<rect x="36" y="62" width="4" height="4" fill="#000000" />
<rect x="72" y="62" width="4" height="6" fill="#000000" />
<rect x="82" y="62" width="2" height="4" fill="#FFE1D4" />
<rect x="92" y="62" width="2" height="6" fill="#FFE1D4" />
<rect x="96" y="62" width="2" height="2" fill="#000000" />
<rect x="100" y="62" width="2" height="2" fill="#000000" />
<rect x="106" y="62" width="2" height="6" fill="#000000" />
<rect x="108" y="62" width="2" height="2" fill="#291313" />
<rect x="112" y="62" width="2" height="2" fill="#000000" />
<rect x="22" y="64" width="2" height="6" fill="#000000" />
<rect x="40" y="64" width="8" height="8" fill="#000000" />
<rect x="48" y="64" width="2" height="2" fill="#FFE1D4" />
<rect x="54" y="64" width="4" height="32" fill="#FFE1D4" />
<rect x="68" y="64" width="2" height="30" fill="#FFE1D4" />
<rect x="70" y="64" width="2" height="6" fill="#000000" />
<rect x="80" y="64" width="2" height="4" fill="#FFE1D4" />
<rect x="94" y="64" width="4" height="4" fill="#FFE1D4" />
<rect x="100" y="64" width="2" height="2" fill="#291313" />
<rect x="102" y="64" width="2" height="2" fill="#000000" />
<rect x="108" y="64" width="2" height="8" fill="#000000" />
<rect x="110" y="64" width="6" height="2" fill="#291313" />
<rect x="116" y="64" width="2" height="6" fill="#000000" />
<rect x="14" y="66" width="2" height="8" fill="#000000" />
<rect x="30" y="66" width="8" height="4" fill="#FFE1D4" />
<rect x="38" y="66" width="2" height="20" fill="#000000" />
<rect x="48" y="66" width="2" height="18" fill="#000000" />
<rect x="76" y="66" width="4" height="2" fill="#FFE1D4" />
<rect x="82" y="66" width="8" height="4" fill="#000000" />
<rect x="90" y="66" width="2" height="2" fill="#FFE1D4" />
<rect x="100" y="66" width="2" height="12" fill="#000000" />
<rect x="102" y="66" width="2" height="2" fill="#291313" />
<rect x="110" y="66" width="6" height="4" fill="#000000" />
<rect x="118" y="66" width="2" height="6" fill="#000000" />
<rect x="8" y="68" width="2" height="16" fill="#000000" />
<rect x="72" y="68" width="2" height="2" fill="#000000" />
<rect x="74" y="68" width="4" height="2" fill="#FFE1D4" />
<rect x="78" y="68" width="4" height="4" fill="#000000" />
<rect x="90" y="68" width="6" height="4" fill="#000000" />
<rect x="96" y="68" width="2" height="2" fill="#FFE1D4" />
<rect x="102" y="68" width="2" height="16" fill="#000000" />
<rect x="106" y="68" width="2" height="2" fill="#291313" />
<rect x="16" y="70" width="8" height="6" fill="#FFE1D4" />
<rect x="26" y="70" width="10" height="14" fill="#FFE1D4" />
<rect x="36" y="70" width="2" height="10" fill="#000000" />
<rect x="50" y="70" width="2" height="12" fill="#000000" />
<rect x="52" y="70" width="2" height="24" fill="#FFE1D4" />
<rect x="70" y="70" width="6" height="2" fill="#FFE1D4" />
<rect x="76" y="70" width="2" height="6" fill="#000000" />
<rect x="82" y="70" width="2" height="2" fill="#000000" />
<rect x="84" y="70" width="6" height="38" fill="#FFE1D4" />
<rect x="96" y="70" width="2" height="4" fill="#000000" />
<rect x="106" y="70" width="2" height="16" fill="#000000" />
<rect x="110" y="70" width="8" height="4" fill="#FFE1D4" />
<rect x="6" y="72" width="2" height="12" fill="#000000" />
<rect x="12" y="72" width="2" height="2" fill="#291313" />
<rect x="24" y="72" width="2" height="24" fill="#FFE1D4" />
<rect x="40" y="72" width="2" height="12" fill="#000000" />
<rect x="42" y="72" width="4" height="6" fill="#FFFFFF" />
<rect x="46" y="72" width="2" height="12" fill="#000000" />
<rect x="70" y="72" width="4" height="2" fill="#FFE1D4" />
<rect x="74" y="72" width="2" height="6" fill="#000000" />
<rect x="78" y="72" width="2" height="2" fill="#000000" />
<rect x="80" y="72" width="4" height="26" fill="#FFE1D4" />
<rect x="90" y="72" width="2" height="34" fill="#FFE1D4" />
<rect x="92" y="72" width="4" height="2" fill="#000000" />
<rect x="98" y="72" width="2" height="24" fill="#FFE1D4" />
<rect x="108" y="72" width="2" height="2" fill="#FFE1D4" />
<rect x="118" y="72" width="2" height="12" fill="#FFE1D4" />
<rect x="120" y="72" width="2" height="24" fill="#000000" />
<rect x="12" y="74" width="2" height="26" fill="#000000" />
<rect x="14" y="74" width="2" height="12" fill="#FFE1D4" />
<rect x="70" y="74" width="4" height="4" fill="#000000" />
<rect x="78" y="74" width="2" height="20" fill="#FFE1D4" />
<rect x="92" y="74" width="6" height="26" fill="#FFE1D4" />
<rect x="108" y="74" width="6" height="2" fill="#000000" />
<rect x="114" y="74" width="4" height="2" fill="#FFE1D4" />
<rect x="0" y="76" width="6" height="2" fill="#000000" />
<rect x="16" y="76" width="6" height="6" fill="#FFE1D4" />
<rect x="22" y="76" width="2" height="8" fill="#000000" />
<rect x="76" y="76" width="2" height="16" fill="#FFE1D4" />
<rect x="108" y="76" width="6" height="2" fill="#FFE1D4" />
<rect x="114" y="76" width="2" height="2" fill="#000000" />
<rect x="116" y="76" width="2" height="14" fill="#FFE1D4" />
<rect x="2" y="78" width="4" height="2" fill="#000000" />
<rect x="42" y="78" width="4" height="6" fill="#000000" />
<rect x="70" y="78" width="6" height="14" fill="#FFE1D4" />
<rect x="100" y="78" width="2" height="16" fill="#FFE1D4" />
<rect x="108" y="78" width="2" height="6" fill="#000000" />
<rect x="110" y="78" width="6" height="4" fill="#FFE1D4" />
<rect x="4" y="80" width="2" height="2" fill="#000000" />
<rect x="10" y="80" width="2" height="2" fill="#291313" />
<rect x="36" y="80" width="2" height="2" fill="#FFE1D4" />
<rect x="10" y="82" width="2" height="18" fill="#000000" />
<rect x="16" y="82" width="4" height="8" fill="#FFE1D4" />
<rect x="20" y="82" width="2" height="4" fill="#000000" />
<rect x="36" y="82" width="2" height="6" fill="#000000" />
<rect x="50" y="82" width="2" height="12" fill="#FFE1D4" />
<rect x="110" y="82" width="2" height="2" fill="#000000" />
<rect x="112" y="82" width="4" height="12" fill="#FFE1D4" />
<rect x="22" y="84" width="2" height="8" fill="#FFE1D4" />
<rect x="26" y="84" width="8" height="14" fill="#FFE1D4" />
<rect x="34" y="84" width="2" height="4" fill="#000000" />
<rect x="40" y="84" width="10" height="12" fill="#FFE1D4" />
<rect x="102" y="84" width="2" height="6" fill="#FFE1D4" />
<rect x="108" y="84" width="4" height="14" fill="#FFE1D4" />
<rect x="118" y="84" width="2" height="12" fill="#000000" />
<rect x="122" y="84" width="2" height="12" fill="#000000" />
<rect x="8" y="86" width="2" height="14" fill="#000000" />
<rect x="14" y="86" width="2" height="14" fill="#000000" />
<rect x="20" y="86" width="2" height="4" fill="#FFE1D4" />
<rect x="38" y="86" width="2" height="24" fill="#FFE1D4" />
<rect x="106" y="86" width="2" height="12" fill="#FFE1D4" />
<rect x="0" y="88" width="2" height="6" fill="#000000" />
<rect x="34" y="88" width="4" height="20" fill="#FFE1D4" />
<rect x="104" y="88" width="2" height="4" fill="#FFE1D4" />
<rect x="124" y="88" width="2" height="8" fill="#000000" />
<rect x="2" y="90" width="6" height="6" fill="#000000" />
<rect x="16" y="90" width="6" height="6" fill="#000000" />
<rect x="102" y="90" width="2" height="2" fill="#000000" />
<rect x="116" y="90" width="2" height="6" fill="#000000" />
<rect x="22" y="92" width="2" height="10" fill="#000000" />
<rect x="70" y="92" width="4" height="2" fill="#FFE1D4" />
<rect x="74" y="92" width="4" height="6" fill="#000000" />
<rect x="102" y="92" width="2" height="4" fill="#FFE1D4" />
<rect x="104" y="92" width="2" height="2" fill="#000000" />
<rect x="126" y="92" width="2" height="2" fill="#000000" />
<rect x="50" y="94" width="4" height="6" fill="#000000" />
<rect x="68" y="94" width="6" height="4" fill="#000000" />
<rect x="78" y="94" width="2" height="4" fill="#000000" />
<rect x="100" y="94" width="2" height="20" fill="#000000" />
<rect x="104" y="94" width="2" height="4" fill="#FFE1D4" />
<rect x="112" y="94" width="2" height="2" fill="#FFE1D4" />
<rect x="114" y="94" width="2" height="2" fill="#000000" />
<rect x="4" y="96" width="4" height="2" fill="#000000" />
<rect x="16" y="96" width="4" height="2" fill="#000000" />
<rect x="24" y="96" width="2" height="22" fill="#000000" />
<rect x="40" y="96" width="8" height="16" fill="#FFE1D4" />
<rect x="48" y="96" width="2" height="4" fill="#000000" />
<rect x="54" y="96" width="14" height="4" fill="#000000" />
<rect x="98" y="96" width="2" height="18" fill="#000000" />
<rect x="102" y="96" width="2" height="18" fill="#000000" />
<rect x="112" y="96" width="2" height="2" fill="#000000" />
<rect x="6" y="98" width="2" height="2" fill="#000000" />
<rect x="26" y="98" width="2" height="20" fill="#000000" />
<rect x="28" y="98" width="6" height="4" fill="#FFE1D4" />
<rect x="68" y="98" width="2" height="8" fill="#FFE1D4" />
<rect x="70" y="98" width="6" height="2" fill="#000000" />
<rect x="76" y="98" width="4" height="16" fill="#FFE1D4" />
<rect x="80" y="98" width="2" height="2" fill="#000000" />
<rect x="82" y="98" width="2" height="14" fill="#FFE1D4" />
<rect x="104" y="98" width="8" height="2" fill="#000000" />
<rect x="48" y="100" width="8" height="14" fill="#FFE1D4" />
<rect x="56" y="100" width="6" height="2" fill="#000000" />
<rect x="62" y="100" width="6" height="2" fill="#FFE1D4" />
<rect x="70" y="100" width="2" height="6" fill="#FFE1D4" />
<rect x="72" y="100" width="4" height="6" fill="#000000" />
<rect x="80" y="100" width="2" height="14" fill="#FFE1D4" />
<rect x="92" y="100" width="4" height="2" fill="#FFE1D4" />
<rect x="96" y="100" width="2" height="14" fill="#000000" />
<rect x="28" y="102" width="2" height="14" fill="#000000" />
<rect x="30" y="102" width="4" height="2" fill="#FFE1D4" />
<rect x="56" y="102" width="2" height="14" fill="#FFE1D4" />
<rect x="58" y="102" width="6" height="2" fill="#000000" />
<rect x="64" y="102" width="4" height="2" fill="#FFE1D4" />
<rect x="92" y="102" width="2" height="2" fill="#FFE1D4" />
<rect x="94" y="102" width="2" height="12" fill="#000000" />
<rect x="30" y="104" width="2" height="12" fill="#000000" />
<rect x="32" y="104" width="2" height="2" fill="#FFE1D4" />
<rect x="58" y="104" width="2" height="14" fill="#FFE1D4" />
<rect x="60" y="104" width="8" height="2" fill="#000000" />
<rect x="92" y="104" width="2" height="10" fill="#000000" />
<rect x="104" y="104" width="2" height="10" fill="#000000" />
<rect x="22" y="106" width="2" height="12" fill="#000000" />
<rect x="32" y="106" width="2" height="8" fill="#000000" />
<rect x="60" y="106" width="4" height="12" fill="#FFE1D4" />
<rect x="64" y="106" width="10" height="2" fill="#000000" />
<rect x="74" y="106" width="2" height="10" fill="#FFE1D4" />
<rect x="90" y="106" width="2" height="6" fill="#000000" />
<rect x="34" y="108" width="2" height="6" fill="#000000" />
<rect x="36" y="108" width="2" height="2" fill="#FFE1D4" />
<rect x="64" y="108" width="4" height="10" fill="#FFE1D4" />
<rect x="68" y="108" width="4" height="2" fill="#000000" />
<rect x="72" y="108" width="2" height="8" fill="#FFE1D4" />
<rect x="84" y="108" width="4" height="2" fill="#FFE1D4" />
<rect x="88" y="108" width="2" height="4" fill="#000000" />
<rect x="106" y="108" width="2" height="6" fill="#000000" />
<rect x="20" y="110" width="2" height="6" fill="#000000" />
<rect x="36" y="110" width="4" height="2" fill="#000000" />
<rect x="68" y="110" width="4" height="8" fill="#FFE1D4" />
<rect x="84" y="110" width="2" height="2" fill="#FFE1D4" />
<rect x="86" y="110" width="2" height="2" fill="#000000" />
<rect x="108" y="110" width="2" height="2" fill="#000000" />
<rect x="18" y="112" width="2" height="2" fill="#000000" />
<rect x="40" y="112" width="4" height="2" fill="#000000" />
<rect x="44" y="112" width="4" height="2" fill="#FFE1D4" />
<rect x="82" y="112" width="4" height="2" fill="#000000" />
<rect x="44" y="114" width="6" height="2" fill="#000000" />
<rect x="50" y="114" width="6" height="2" fill="#FFE1D4" />
<rect x="76" y="114" width="2" height="2" fill="#FFE1D4" />
<rect x="78" y="114" width="4" height="2" fill="#000000" />
<rect x="50" y="116" width="8" height="2" fill="#000000" />
<rect x="72" y="116" width="6" height="2" fill="#000000" />
<rect x="58" y="118" width="14" height="2" fill="#000000" />
</svg>