<?xml version="1.0" encoding="UTF-8" ?>
<svg version="1.1" width="42" height="42" xmlns="http://www.w3.org/2000/svg" shape-rendering="crispEdges">
<rect x="24" y="4" width="2" height="2" fill="#000000" />
<rect x="22" y="6" width="2" height="2" fill="#000000" />
<rect x="24" y="6" width="2" height="6" fill="#FFFFFF" />
<rect x="26" y="6" width="2" height="2" fill="#000000" />
<rect x="8" y="8" width="10" height="2" fill="#000000" />
<rect x="18" y="8" width="2" height="2" fill="#495D63" />
<rect x="20" y="8" width="2" height="2" fill="#000000" />
<rect x="22" y="8" width="2" height="6" fill="#FFFFFF" />
<rect x="26" y="8" width="2" height="8" fill="#FFFFFF" />
<rect x="28" y="8" width="2" height="2" fill="#000000" />
<rect x="6" y="10" width="2" height="10" fill="#000000" />
<rect x="8" y="10" width="10" height="2" fill="#495D63" />
<rect x="18" y="10" width="2" height="2" fill="#000000" />
<rect x="20" y="10" width="2" height="6" fill="#FFFFFF" />
<rect x="28" y="10" width="2" height="4" fill="#FFFFFF" />
<rect x="30" y="10" width="2" height="2" fill="#000000" />
<rect x="8" y="12" width="8" height="2" fill="#495D63" />
<rect x="16" y="12" width="2" height="2" fill="#000000" />
<rect x="18" y="12" width="2" height="6" fill="#FFFFFF" />
<rect x="24" y="12" width="2" height="2" fill="#495D63" />
<rect x="30" y="12" width="2" height="10" fill="#FFFFFF" />
<rect x="32" y="12" width="2" height="2" fill="#000000" />
<rect x="34" y="12" width="2" height="2" fill="#495D63" />
<rect x="36" y="12" width="4" height="2" fill="#000000" />
<rect x="8" y="14" width="6" height="2" fill="#495D63" />
<rect x="14" y="14" width="2" height="2" fill="#000000" />
<rect x="16" y="14" width="2" height="4" fill="#FFFFFF" />
<rect x="22" y="14" width="2" height="2" fill="#495D63" />
<rect x="24" y="14" width="2" height="4" fill="#FFFFFF" />
<rect x="28" y="14" width="2" height="2" fill="#495D63" />
<rect x="32" y="14" width="2" height="12" fill="#FFFFFF" />
<rect x="34" y="14" width="2" height="2" fill="#000000" />
<rect x="36" y="14" width="4" height="2" fill="#495D63" />
<rect x="40" y="14" width="2" height="22" fill="#000000" />
<rect x="8" y="16" width="4" height="2" fill="#495D63" />
<rect x="12" y="16" width="2" height="4" fill="#000000" />
<rect x="14" y="16" width="2" height="2" fill="#FFFFFF" />
<rect x="20" y="16" width="2" height="2" fill="#495D63" />
<rect x="22" y="16" width="2" height="2" fill="#FFFFFF" />
<rect x="26" y="16" width="2" height="2" fill="#495D63" />
<rect x="28" y="16" width="2" height="2" fill="#FFFFFF" />
<rect x="34" y="16" width="2" height="10" fill="#FFFFFF" />
<rect x="36" y="16" width="2" height="2" fill="#000000" />
<rect x="38" y="16" width="2" height="2" fill="#495D63" />
<rect x="0" y="18" width="2" height="2" fill="#495D63" />
<rect x="2" y="18" width="4" height="2" fill="#000000" />
<rect x="8" y="18" width="4" height="2" fill="#000000" />
<rect x="14" y="18" width="14" height="2" fill="#000000" />
<rect x="28" y="18" width="2" height="2" fill="#495D63" />
<rect x="36" y="18" width="2" height="6" fill="#FFFFFF" />
<rect x="38" y="18" width="2" height="2" fill="#000000" />
<rect x="0" y="20" width="2" height="4" fill="#000000" />
<rect x="2" y="20" width="2" height="2" fill="#495D63" />
<rect x="4" y="20" width="22" height="6" fill="#FFFFFF" />
<rect x="26" y="20" width="2" height="2" fill="#495D63" />
<rect x="28" y="20" width="2" height="4" fill="#000000" />
<rect x="38" y="20" width="2" height="2" fill="#FFFFFF" />
<rect x="2" y="22" width="2" height="2" fill="#FFFFFF" />
<rect x="26" y="22" width="2" height="14" fill="#FFFFFF" />
<rect x="30" y="22" width="2" height="2" fill="#495D63" />
<rect x="38" y="22" width="2" height="2" fill="#000000" />
<rect x="2" y="24" width="2" height="4" fill="#000000" />
<rect x="28" y="24" width="2" height="12" fill="#FFFFFF" />
<rect x="30" y="24" width="2" height="2" fill="#000000" />
<rect x="36" y="24" width="2" height="2" fill="#000000" />
<rect x="38" y="24" width="2" height="8" fill="#495D63" />
<rect x="4" y="26" width="2" height="2" fill="#495D63" />
<rect x="6" y="26" width="20" height="4" fill="#FFFFFF" />
<rect x="30" y="26" width="2" height="10" fill="#FFFFFF" />
<rect x="32" y="26" width="2" height="2" fill="#495D63" />
<rect x="34" y="26" width="2" height="2" fill="#000000" />
<rect x="36" y="26" width="2" height="6" fill="#495D63" />
<rect x="4" y="28" width="2" height="2" fill="#000000" />
<rect x="32" y="28" width="2" height="8" fill="#FFFFFF" />
<rect x="34" y="28" width="2" height="2" fill="#495D63" />
<rect x="6" y="30" width="2" height="2" fill="#000000" />
<rect x="8" y="30" width="18" height="2" fill="#FFFFFF" />
<rect x="34" y="30" width="2" height="6" fill="#FFFFFF" />
<rect x="8" y="32" width="2" height="2" fill="#000000" />
<rect x="10" y="32" width="16" height="2" fill="#FFFFFF" />
<rect x="36" y="32" width="2" height="4" fill="#FFFFFF" />
<rect x="38" y="32" width="2" height="2" fill="#000000" />
<rect x="10" y="34" width="2" height="2" fill="#000000" />
<rect x="12" y="34" width="2" height="2" fill="#495D63" />
<rect x="14" y="34" width="12" height="2" fill="#FFFFFF" />
<rect x="38" y="34" width="2" height="2" fill="#FFFFFF" />
<rect x="12" y="36" width="28" height="2" fill="#000000" />
<rect x="40" y="36" width="2" height="2" fill="#495D63" />
</svg>