<?xml version="1.0" encoding="UTF-8" ?>
<svg version="1.1" width="64" height="64" xmlns="http://www.w3.org/2000/svg" shape-rendering="crispEdges">
<rect x="38" y="4" width="6" height="2" fill="#000000" />
<rect x="36" y="6" width="2" height="2" fill="#000000" />
<rect x="40" y="6" width="2" height="2" fill="#495D63" />
<rect x="44" y="6" width="2" height="2" fill="#000000" />
<rect x="34" y="8" width="2" height="2" fill="#000000" />
<rect x="38" y="8" width="6" height="30" fill="#000000" />
<rect x="46" y="8" width="2" height="2" fill="#495D63" />
<rect x="32" y="10" width="2" height="2" fill="#000000" />
<rect x="36" y="10" width="2" height="34" fill="#000000" />
<rect x="44" y="10" width="2" height="26" fill="#000000" />
<rect x="48" y="10" width="2" height="2" fill="#495D63" />
<rect x="30" y="12" width="2" height="2" fill="#000000" />
<rect x="34" y="12" width="2" height="34" fill="#000000" />
<rect x="46" y="12" width="2" height="22" fill="#000000" />
<rect x="50" y="12" width="2" height="2" fill="#495D63" />
<rect x="28" y="14" width="2" height="2" fill="#000000" />
<rect x="32" y="14" width="2" height="34" fill="#000000" />
<rect x="48" y="14" width="2" height="18" fill="#000000" />
<rect x="52" y="14" width="2" height="2" fill="#495D63" />
<rect x="26" y="16" width="2" height="2" fill="#000000" />
<rect x="30" y="16" width="2" height="34" fill="#000000" />
<rect x="50" y="16" width="2" height="14" fill="#000000" />
<rect x="54" y="16" width="2" height="2" fill="#495D63" />
<rect x="24" y="18" width="2" height="2" fill="#000000" />
<rect x="28" y="18" width="2" height="32" fill="#000000" />
<rect x="52" y="18" width="2" height="10" fill="#000000" />
<rect x="56" y="18" width="2" height="2" fill="#000000" />
<rect x="22" y="20" width="2" height="2" fill="#000000" />
<rect x="26" y="20" width="2" height="30" fill="#000000" />
<rect x="54" y="20" width="2" height="6" fill="#000000" />
<rect x="58" y="20" width="2" height="8" fill="#000000" />
<rect x="20" y="22" width="2" height="2" fill="#000000" />
<rect x="24" y="22" width="2" height="26" fill="#000000" />
<rect x="18" y="24" width="2" height="2" fill="#000000" />
<rect x="22" y="24" width="2" height="22" fill="#000000" />
<rect x="16" y="26" width="2" height="2" fill="#000000" />
<rect x="20" y="26" width="2" height="18" fill="#000000" />
<rect x="14" y="28" width="2" height="2" fill="#000000" />
<rect x="18" y="28" width="2" height="14" fill="#000000" />
<rect x="56" y="28" width="2" height="4" fill="#000000" />
<rect x="12" y="30" width="2" height="2" fill="#000000" />
<rect x="16" y="30" width="2" height="10" fill="#000000" />
<rect x="54" y="30" width="2" height="2" fill="#495D63" />
<rect x="10" y="32" width="2" height="2" fill="#000000" />
<rect x="14" y="32" width="2" height="6" fill="#000000" />
<rect x="52" y="32" width="2" height="2" fill="#495D63" />
<rect x="54" y="32" width="2" height="2" fill="#000000" />
<rect x="8" y="34" width="2" height="2" fill="#000000" />
<rect x="12" y="34" width="2" height="2" fill="#495D63" />
<rect x="50" y="34" width="2" height="2" fill="#495D63" />
<rect x="52" y="34" width="2" height="2" fill="#000000" />
<rect x="6" y="36" width="2" height="8" fill="#000000" />
<rect x="48" y="36" width="2" height="2" fill="#495D63" />
<rect x="50" y="36" width="2" height="2" fill="#000000" />
<rect x="38" y="38" width="4" height="2" fill="#000000" />
<rect x="46" y="38" width="2" height="2" fill="#495D63" />
<rect x="48" y="38" width="2" height="2" fill="#000000" />
<rect x="38" y="40" width="2" height="2" fill="#000000" />
<rect x="44" y="40" width="2" height="2" fill="#495D63" />
<rect x="46" y="40" width="2" height="2" fill="#000000" />
<rect x="42" y="42" width="2" height="2" fill="#495D63" />
<rect x="44" y="42" width="2" height="2" fill="#000000" />
<rect x="8" y="44" width="2" height="2" fill="#000000" />
<rect x="14" y="44" width="2" height="2" fill="#495D63" />
<rect x="16" y="44" width="2" height="6" fill="#000000" />
<rect x="18" y="44" width="2" height="2" fill="#495D63" />
<rect x="40" y="44" width="2" height="2" fill="#495D63" />
<rect x="42" y="44" width="2" height="2" fill="#000000" />
<rect x="10" y="46" width="2" height="2" fill="#495D63" />
<rect x="14" y="46" width="2" height="2" fill="#000000" />
<rect x="18" y="46" width="2" height="2" fill="#000000" />
<rect x="38" y="46" width="2" height="2" fill="#495D63" />
<rect x="40" y="46" width="2" height="2" fill="#000000" />
<rect x="12" y="48" width="2" height="2" fill="#495D63" />
<rect x="18" y="48" width="2" height="2" fill="#495D63" />
<rect x="36" y="48" width="2" height="2" fill="#495D63" />
<rect x="38" y="48" width="2" height="2" fill="#000000" />
<rect x="14" y="50" width="2" height="2" fill="#495D63" />
<rect x="34" y="50" width="2" height="2" fill="#495D63" />
<rect x="36" y="50" width="2" height="2" fill="#000000" />
<rect x="16" y="52" width="2" height="2" fill="#495D63" />
<rect x="32" y="52" width="2" height="2" fill="#495D63" />
<rect x="34" y="52" width="2" height="2" fill="#000000" />
<rect x="18" y="54" width="2" height="2" fill="#495D63" />
<rect x="30" y="54" width="2" height="2" fill="#495D63" />
<rect x="32" y="54" width="2" height="2" fill="#000000" />
<rect x="20" y="56" width="2" height="2" fill="#000000" />
<rect x="28" y="56" width="4" height="2" fill="#000000" />
<rect x="22" y="58" width="8" height="2" fill="#000000" />
</svg>