<?xml version="1.0" encoding="UTF-8" ?>
<svg version="1.1" width="64" height="64" xmlns="http://www.w3.org/2000/svg" shape-rendering="crispEdges">
<rect x="26" y="14" width="14" height="2" fill="#FFFFFF" />
<rect x="40" y="14" width="2" height="2" fill="#495D63" />
<rect x="24" y="16" width="8" height="2" fill="#FFFFFF" />
<rect x="40" y="16" width="2" height="2" fill="#FFFFFF" />
<rect x="42" y="16" width="2" height="2" fill="#495D63" />
<rect x="28" y="18" width="2" height="2" fill="#495D63" />
<rect x="30" y="18" width="2" height="2" fill="#FFFFFF" />
<rect x="42" y="18" width="2" height="4" fill="#FFFFFF" />
<rect x="32" y="20" width="2" height="2" fill="#FFFFFF" />
<rect x="44" y="20" width="2" height="2" fill="#495D63" />
<rect x="34" y="22" width="2" height="8" fill="#FFFFFF" />
<rect x="44" y="22" width="2" height="4" fill="#FFFFFF" />
<rect x="46" y="26" width="2" height="14" fill="#FFFFFF" />
<rect x="34" y="30" width="2" height="4" fill="#495D63" />
<rect x="32" y="34" width="2" height="2" fill="#495D63" />
<rect x="32" y="36" width="2" height="2" fill="#FFFFFF" />
<rect x="30" y="38" width="2" height="2" fill="#FFFFFF" />
<rect x="44" y="38" width="2" height="2" fill="#495D63" />
<rect x="12" y="40" width="4" height="4" fill="#FFFFFF" />
<rect x="26" y="40" width="2" height="2" fill="#495D63" />
<rect x="28" y="40" width="2" height="2" fill="#FFFFFF" />
<rect x="44" y="40" width="2" height="4" fill="#FFFFFF" />
<rect x="16" y="42" width="2" height="2" fill="#495D63" />
<rect x="22" y="42" width="2" height="2" fill="#495D63" />
<rect x="24" y="42" width="2" height="2" fill="#FFFFFF" />
<rect x="14" y="44" width="10" height="2" fill="#FFFFFF" />
<rect x="42" y="44" width="2" height="2" fill="#FFFFFF" />
<rect x="14" y="46" width="2" height="2" fill="#495D63" />
<rect x="16" y="46" width="2" height="2" fill="#FFFFFF" />
<rect x="40" y="46" width="2" height="2" fill="#FFFFFF" />
<rect x="16" y="48" width="2" height="2" fill="#495D63" />
<rect x="18" y="48" width="2" height="2" fill="#FFFFFF" />
<rect x="36" y="48" width="4" height="2" fill="#FFFFFF" />
<rect x="40" y="48" width="2" height="2" fill="#495D63" />
<rect x="18" y="50" width="2" height="2" fill="#495D63" />
<rect x="20" y="50" width="16" height="2" fill="#FFFFFF" />
<rect x="36" y="50" width="2" height="2" fill="#495D63" />
</svg>