<?xml version="1.0" encoding="UTF-8" ?>
<svg version="1.1" width="32" height="32" xmlns="http://www.w3.org/2000/svg" shape-rendering="crispEdges">
<rect x="7" y="4" width="1" height="1" fill="#635049" />
<rect x="8" y="4" width="2" height="24" fill="#000000" />
<rect x="10" y="4" width="1" height="1" fill="#635049" />
<rect x="21" y="4" width="1" height="1" fill="#635049" />
<rect x="22" y="4" width="1" height="25" fill="#000000" />
<rect x="23" y="4" width="1" height="1" fill="#635049" />
<rect x="7" y="5" width="1" height="22" fill="#000000" />
<rect x="10" y="5" width="1" height="22" fill="#000000" />
<rect x="11" y="5" width="1" height="1" fill="#635049" />
<rect x="21" y="5" width="1" height="23" fill="#000000" />
<rect x="23" y="5" width="1" height="23" fill="#000000" />
<rect x="11" y="6" width="1" height="20" fill="#000000" />
<rect x="12" y="6" width="1" height="1" fill="#635049" />
<rect x="12" y="7" width="1" height="18" fill="#000000" />
<rect x="13" y="7" width="1" height="1" fill="#635049" />
<rect x="13" y="8" width="1" height="16" fill="#000000" />
<rect x="14" y="8" width="1" height="1" fill="#635049" />
<rect x="14" y="9" width="1" height="14" fill="#000000" />
<rect x="15" y="9" width="1" height="1" fill="#635049" />
<rect x="15" y="10" width="1" height="12" fill="#000000" />
<rect x="16" y="10" width="1" height="1" fill="#635049" />
<rect x="16" y="11" width="1" height="10" fill="#000000" />
<rect x="17" y="11" width="1" height="1" fill="#635049" />
<rect x="17" y="12" width="1" height="8" fill="#000000" />
<rect x="18" y="12" width="1" height="1" fill="#635049" />
<rect x="18" y="13" width="1" height="6" fill="#000000" />
<rect x="19" y="13" width="1" height="1" fill="#635049" />
<rect x="19" y="14" width="1" height="4" fill="#000000" />
<rect x="20" y="14" width="1" height="1" fill="#635049" />
<rect x="20" y="15" width="1" height="2" fill="#000000" />
<rect x="20" y="17" width="1" height="1" fill="#635049" />
<rect x="19" y="18" width="1" height="1" fill="#635049" />
<rect x="18" y="19" width="1" height="1" fill="#635049" />
<rect x="17" y="20" width="1" height="1" fill="#635049" />
<rect x="16" y="21" width="1" height="1" fill="#635049" />
<rect x="15" y="22" width="1" height="1" fill="#635049" />
<rect x="14" y="23" width="1" height="1" fill="#635049" />
<rect x="13" y="24" width="1" height="1" fill="#635049" />
<rect x="12" y="25" width="1" height="1" fill="#635049" />
<rect x="11" y="26" width="1" height="1" fill="#635049" />
<rect x="7" y="27" width="1" height="1" fill="#635049" />
<rect x="10" y="27" width="1" height="1" fill="#635049" />
<rect x="21" y="28" width="1" height="1" fill="#635049" />
<rect x="23" y="28" width="1" height="1" fill="#635049" />
</svg>