<?xml version="1.0" encoding="UTF-8" ?>
<svg version="1.1" width="64" height="64" xmlns="http://www.w3.org/2000/svg" shape-rendering="crispEdges">
<rect x="20" y="16" width="2" height="2" fill="#495D63" />
<rect x="22" y="16" width="14" height="6" fill="#000000" />
<rect x="36" y="16" width="2" height="2" fill="#495D63" />
<rect x="18" y="18" width="4" height="6" fill="#000000" />
<rect x="36" y="18" width="4" height="8" fill="#000000" />
<rect x="16" y="20" width="2" height="8" fill="#000000" />
<rect x="40" y="20" width="2" height="2" fill="#495D63" />
<rect x="14" y="22" width="2" height="2" fill="#495D63" />
<rect x="22" y="22" width="2" height="2" fill="#495D63" />
<rect x="34" y="22" width="2" height="2" fill="#495D63" />
<rect x="40" y="22" width="2" height="8" fill="#000000" />
<rect x="14" y="24" width="2" height="2" fill="#000000" />
<rect x="18" y="24" width="2" height="8" fill="#000000" />
<rect x="42" y="24" width="2" height="2" fill="#495D63" />
<rect x="20" y="26" width="2" height="2" fill="#495D63" />
<rect x="38" y="26" width="2" height="2" fill="#000000" />
<rect x="42" y="26" width="2" height="6" fill="#000000" />
<rect x="44" y="26" width="2" height="2" fill="#495D63" />
<rect x="20" y="28" width="2" height="6" fill="#000000" />
<rect x="44" y="28" width="4" height="4" fill="#000000" />
<rect x="22" y="30" width="2" height="4" fill="#000000" />
<rect x="48" y="30" width="2" height="12" fill="#000000" />
<rect x="24" y="32" width="2" height="4" fill="#000000" />
<rect x="26" y="32" width="2" height="2" fill="#495D63" />
<rect x="44" y="32" width="2" height="2" fill="#495D63" />
<rect x="46" y="32" width="2" height="12" fill="#000000" />
<rect x="50" y="32" width="2" height="6" fill="#495D63" />
<rect x="22" y="34" width="2" height="2" fill="#495D63" />
<rect x="26" y="34" width="4" height="12" fill="#000000" />
<rect x="38" y="34" width="2" height="2" fill="#495D63" />
<rect x="40" y="34" width="6" height="12" fill="#000000" />
<rect x="24" y="36" width="2" height="2" fill="#495D63" />
<rect x="30" y="36" width="2" height="2" fill="#495D63" />
<rect x="36" y="36" width="2" height="2" fill="#495D63" />
<rect x="38" y="36" width="2" height="10" fill="#000000" />
<rect x="18" y="38" width="2" height="2" fill="#495D63" />
<rect x="20" y="38" width="6" height="12" fill="#000000" />
<rect x="30" y="38" width="2" height="2" fill="#000000" />
<rect x="36" y="38" width="2" height="6" fill="#000000" />
<rect x="16" y="40" width="2" height="2" fill="#495D63" />
<rect x="18" y="40" width="2" height="10" fill="#000000" />
<rect x="30" y="40" width="2" height="2" fill="#495D63" />
<rect x="16" y="42" width="2" height="6" fill="#000000" />
<rect x="48" y="42" width="2" height="2" fill="#495D63" />
<rect x="46" y="44" width="2" height="2" fill="#495D63" />
<rect x="26" y="46" width="2" height="2" fill="#000000" />
<rect x="28" y="46" width="2" height="2" fill="#495D63" />
<rect x="26" y="48" width="2" height="2" fill="#495D63" />
</svg>