<?xml version="1.0" encoding="UTF-8" ?>
<svg version="1.1" width="32" height="32" xmlns="http://www.w3.org/2000/svg" shape-rendering="crispEdges">
<rect x="2" y="2" width="2" height="2" fill="#495D63" />
<rect x="4" y="2" width="4" height="28" fill="#FFFFFF" />
<rect x="8" y="2" width="2" height="2" fill="#495D63" />
<rect x="2" y="4" width="2" height="24" fill="#FFFFFF" />
<rect x="8" y="4" width="4" height="24" fill="#FFFFFF" />
<rect x="12" y="4" width="2" height="2" fill="#495D63" />
<rect x="12" y="6" width="4" height="20" fill="#FFFFFF" />
<rect x="16" y="6" width="2" height="2" fill="#495D63" />
<rect x="16" y="8" width="4" height="14" fill="#FFFFFF" />
<rect x="20" y="8" width="2" height="2" fill="#495D63" />
<rect x="20" y="10" width="4" height="10" fill="#FFFFFF" />
<rect x="24" y="12" width="2" height="8" fill="#FFFFFF" />
<rect x="26" y="12" width="2" height="2" fill="#495D63" />
<rect x="26" y="14" width="2" height="2" fill="#FFFFFF" />
<rect x="28" y="14" width="2" height="2" fill="#495D63" />
<rect x="26" y="16" width="2" height="2" fill="#495D63" />
<rect x="20" y="20" width="2" height="2" fill="#FFFFFF" />
<rect x="22" y="20" width="2" height="2" fill="#495D63" />
<rect x="16" y="22" width="2" height="2" fill="#FFFFFF" />
<rect x="18" y="22" width="2" height="2" fill="#495D63" />
<rect x="12" y="26" width="2" height="2" fill="#495D63" />
<rect x="2" y="28" width="2" height="2" fill="#495D63" />
</svg>