<?xml version="1.0" encoding="UTF-8" ?>
<svg version="1.1" width="64" height="64" xmlns="http://www.w3.org/2000/svg" shape-rendering="crispEdges">
<rect x="26" y="2" width="12" height="16" fill="#FFFFFF" />
<rect x="20" y="4" width="6" height="14" fill="#FFFFFF" />
<rect x="38" y="4" width="6" height="18" fill="#FFFFFF" />
<rect x="16" y="6" width="4" height="42" fill="#FFFFFF" />
<rect x="44" y="6" width="4" height="18" fill="#FFFFFF" />
<rect x="14" y="8" width="2" height="48" fill="#FFFFFF" />
<rect x="48" y="8" width="2" height="18" fill="#FFFFFF" />
<rect x="12" y="10" width="2" height="44" fill="#FFFFFF" />
<rect x="50" y="10" width="2" height="44" fill="#FFFFFF" />
<rect x="10" y="12" width="2" height="40" fill="#FFFFFF" />
<rect x="52" y="12" width="2" height="40" fill="#FFFFFF" />
<rect x="8" y="14" width="2" height="36" fill="#FFFFFF" />
<rect x="54" y="14" width="2" height="36" fill="#FFFFFF" />
<rect x="6" y="16" width="2" height="32" fill="#FFFFFF" />
<rect x="56" y="16" width="2" height="32" fill="#FFFFFF" />
<rect x="20" y="18" width="2" height="2" fill="#FFFFFF" />
<rect x="22" y="18" width="4" height="20" fill="#000000" />
<rect x="26" y="18" width="2" height="2" fill="#495D63" />
<rect x="28" y="18" width="10" height="2" fill="#FFFFFF" />
<rect x="4" y="20" width="2" height="24" fill="#FFFFFF" />
<rect x="20" y="20" width="2" height="12" fill="#000000" />
<rect x="26" y="20" width="6" height="24" fill="#000000" />
<rect x="32" y="20" width="2" height="2" fill="#495D63" />
<rect x="34" y="20" width="4" height="2" fill="#FFFFFF" />
<rect x="58" y="20" width="2" height="24" fill="#FFFFFF" />
<rect x="32" y="22" width="6" height="18" fill="#000000" />
<rect x="38" y="22" width="2" height="2" fill="#495D63" />
<rect x="40" y="22" width="4" height="2" fill="#FFFFFF" />
<rect x="38" y="24" width="8" height="8" fill="#000000" />
<rect x="46" y="24" width="2" height="2" fill="#495D63" />
<rect x="2" y="26" width="2" height="12" fill="#FFFFFF" />
<rect x="46" y="26" width="2" height="4" fill="#000000" />
<rect x="48" y="26" width="2" height="4" fill="#495D63" />
<rect x="60" y="26" width="2" height="12" fill="#FFFFFF" />
<rect x="46" y="30" width="2" height="2" fill="#495D63" />
<rect x="48" y="30" width="2" height="26" fill="#FFFFFF" />
<rect x="20" y="32" width="2" height="2" fill="#495D63" />
<rect x="38" y="32" width="6" height="2" fill="#000000" />
<rect x="44" y="32" width="2" height="2" fill="#495D63" />
<rect x="46" y="32" width="2" height="16" fill="#FFFFFF" />
<rect x="20" y="34" width="2" height="16" fill="#FFFFFF" />
<rect x="38" y="34" width="4" height="4" fill="#000000" />
<rect x="42" y="34" width="2" height="2" fill="#495D63" />
<rect x="44" y="34" width="2" height="16" fill="#FFFFFF" />
<rect x="42" y="36" width="2" height="14" fill="#FFFFFF" />
<rect x="22" y="38" width="2" height="2" fill="#495D63" />
<rect x="24" y="38" width="2" height="4" fill="#000000" />
<rect x="38" y="38" width="2" height="2" fill="#000000" />
<rect x="40" y="38" width="2" height="14" fill="#FFFFFF" />
<rect x="22" y="40" width="2" height="12" fill="#FFFFFF" />
<rect x="32" y="40" width="4" height="2" fill="#000000" />
<rect x="36" y="40" width="2" height="2" fill="#495D63" />
<rect x="38" y="40" width="2" height="12" fill="#FFFFFF" />
<rect x="24" y="42" width="2" height="2" fill="#495D63" />
<rect x="32" y="42" width="2" height="2" fill="#000000" />
<rect x="34" y="42" width="2" height="2" fill="#495D63" />
<rect x="36" y="42" width="2" height="10" fill="#FFFFFF" />
<rect x="24" y="44" width="2" height="8" fill="#FFFFFF" />
<rect x="26" y="44" width="4" height="2" fill="#000000" />
<rect x="30" y="44" width="2" height="2" fill="#495D63" />
<rect x="32" y="44" width="4" height="8" fill="#FFFFFF" />
<rect x="26" y="46" width="6" height="6" fill="#FFFFFF" />
<rect x="16" y="48" width="2" height="2" fill="#CDCBCB" />
<rect x="18" y="48" width="2" height="2" fill="#FFFFFF" />
<rect x="46" y="48" width="2" height="2" fill="#CDCBCB" />
<rect x="16" y="50" width="2" height="8" fill="#FFFFFF" />
<rect x="18" y="50" width="4" height="2" fill="#CDCBCB" />
<rect x="42" y="50" width="4" height="2" fill="#CDCBCB" />
<rect x="46" y="50" width="2" height="8" fill="#FFFFFF" />
<rect x="18" y="52" width="2" height="6" fill="#FFFFFF" />
<rect x="20" y="52" width="24" height="2" fill="#CDCBCB" />
<rect x="44" y="52" width="2" height="6" fill="#FFFFFF" />
<rect x="20" y="54" width="2" height="6" fill="#FFFFFF" />
<rect x="22" y="54" width="20" height="2" fill="#CDCBCB" />
<rect x="42" y="54" width="2" height="6" fill="#FFFFFF" />
<rect x="22" y="56" width="4" height="4" fill="#FFFFFF" />
<rect x="26" y="56" width="12" height="2" fill="#CDCBCB" />
<rect x="38" y="56" width="4" height="4" fill="#FFFFFF" />
<rect x="26" y="58" width="12" height="4" fill="#FFFFFF" />
</svg>